<?xml version="1.0" encoding="utf-8"?>
<!-- Generator: Adobe Illustrator 26.2.1, SVG Export Plug-In . SVG Version: 6.00 Build 0)  -->
<svg version="1.1" id="Layer_1" xmlns="http://www.w3.org/2000/svg" xmlns:xlink="http://www.w3.org/1999/xlink" x="0px" y="0px"
	 viewBox="0 0 64 64" style="enable-background:new 0 0 64 64;" xml:space="preserve">
<style type="text/css">
	.st0{opacity:0.6;}
	.st1{fill:#FFFFFF;}
</style>
<g id="icon-l-date_2_">
	<g class="st0">
		<path class="st1" d="M52.2,51H11.8c-1.9,0-3.4-1.5-3.4-3.4V16.4c0-1.9,1.5-3.4,3.4-3.4h40.5c1.9,0,3.4,1.5,3.4,3.4v31.2
			C55.7,49.5,54.1,51,52.2,51z M11.8,15c-0.8,0-1.4,0.6-1.4,1.4v31.2c0,0.8,0.6,1.4,1.4,1.4h40.5c0.8,0,1.4-0.6,1.4-1.4V16.4
			c0-0.8-0.6-1.4-1.4-1.4H11.8z"/>
	</g>
	<g class="st0">
		<rect x="31" y="27" class="st1" width="17" height="2"/>
		<rect x="31" y="35" class="st1" width="9" height="2"/>
		<rect x="31" y="20.6" class="st1" width="2" height="22.7"/>
		<rect x="39" y="28" class="st1" width="2" height="15.3"/>
		<path class="st1" d="M46.6,45H17.4c-1.3,0-2.4-1.1-2.4-2.4V21.4c0-1.3,1.1-2.4,2.4-2.4h29.2c1.3,0,2.4,1.1,2.4,2.4v21.2
			C49,44,47.9,45,46.6,45z M17.4,21c-0.2,0-0.4,0.2-0.4,0.4v21.2c0,0.2,0.2,0.4,0.4,0.4h29.2c0.2,0,0.4-0.2,0.4-0.4V21.4
			c0-0.2-0.2-0.4-0.4-0.4H17.4L17.4,21z"/>
	</g>
</g>
<path class="st1" d="M39,29L39,29v6h-6v-6H39 M39,27h-6c-1.1,0-2,0.9-2,2v6c0,1.1,0.9,2,2,2h6c1.1,0,2-0.9,2-2v-6
	C41,27.9,40.1,27,39,27L39,27z"/>
<g>
	<path class="st1" d="M22.8,26.6h2.4l3.8,11.8h-2.2l-1.8-6.3c-0.4-1.2-0.7-2.6-1.1-3.9H24c-0.3,1.3-0.7,2.6-1,3.9l-1.8,6.3H19
		L22.8,26.6z M21.3,33.5h5.5v1.6h-5.5V33.5z"/>
</g>
</svg>
